<svg id="visual" viewBox="0 0 450 900" width="450" height="900" xmlns="http://www.w3.org/2000/svg" xmlns:xlink="http://www.w3.org/1999/xlink" version="1.1"><rect width="450" height="900" fill="#001829"></rect><g><g transform="translate(327 200)"><path d="M0 -86.9L75.3 -43.5L75.3 43.5L0 86.9L-75.3 43.5L-75.3 -43.5Z" fill="none" stroke="#301ba9" stroke-width="3"></path></g><g transform="translate(105 479)"><path d="M0 -57L49.4 -28.5L49.4 28.5L0 57L-49.4 28.5L-49.4 -28.5Z" fill="none" stroke="#301ba9" stroke-width="3"></path></g><g transform="translate(346 774)"><path d="M0 -75L65 -37.5L65 37.5L0 75L-65 37.5L-65 -37.5Z" fill="none" stroke="#301ba9" stroke-width="3"></path></g><g transform="translate(387 444)"><path d="M0 -37L32 -18.5L32 18.5L0 37L-32 18.5L-32 -18.5Z" stroke="#301ba9" fill="none" stroke-width="3"></path></g><g transform="translate(136 793)"><path d="M0 -73L63.2 -36.5L63.2 36.5L0 73L-63.2 36.5L-63.2 -36.5Z" stroke="#301ba9" fill="none" stroke-width="3"></path></g><g transform="translate(108 84)"><path d="M0 -60L52 -30L52 30L0 60L-52 30L-52 -30Z" stroke="#301ba9" fill="none" stroke-width="3"></path></g><g transform="translate(4 233)"><path d="M0 -67L58 -33.5L58 33.5L0 67L-58 33.5L-58 -33.5Z" stroke="#301ba9" fill="none" stroke-width="3"></path></g><g transform="translate(8 672)"><path d="M0 -40L34.6 -20L34.6 20L0 40L-34.6 20L-34.6 -20Z" stroke="#301ba9" fill="none" stroke-width="3"></path></g><g transform="translate(446 14)"><path d="M0 -83L71.9 -41.5L71.9 41.5L0 83L-71.9 41.5L-71.9 -41.5Z" stroke="#301ba9" fill="none" stroke-width="3"></path></g><g transform="translate(227 343)"><path d="M0 -37L32 -18.5L32 18.5L0 37L-32 18.5L-32 -18.5Z" stroke="#301ba9" fill="none" stroke-width="3"></path></g><g transform="translate(238 625)"><path d="M0 -56L48.5 -28L48.5 28L0 56L-48.5 28L-48.5 -28Z" stroke="#301ba9" fill="none" stroke-width="3"></path></g></g></svg>